<svg width="64" height="77" viewBox="0 0 64 77" fill="none" xmlns="http://www.w3.org/2000/svg">
<g id="Mask group">
<mask id="mask0_194_191" style="mask-type:alpha" maskUnits="userSpaceOnUse" x="0" y="0" width="64" height="77">
<rect id="Rectangle 200" width="64" height="76.9" fill="#D9D9D9"/>
</mask>
<g mask="url(#mask0_194_191)">
<g id="Group">
<path id="Vector" d="M0 33.8947C0.341872 33.6318 0.67007 33.2997 1.05297 33.1336C1.43586 32.9676 1.57261 32.7324 1.62731 32.345C3.25462 22.673 8.24596 15.3118 16.5466 10.289C21.7704 7.13425 27.5002 5.81975 33.5719 6.11033C47.0553 6.76066 58.5832 16.3773 61.8378 29.6606C62.043 30.5185 62.2071 31.3902 62.3438 32.2619C62.4122 32.7047 62.5353 33.0091 63.0139 33.189C63.684 33.4381 64.0258 33.9085 63.9985 34.7387C63.9301 36.5098 63.9985 38.281 63.9575 40.0521C63.9575 40.3565 63.766 40.7439 63.5472 40.9515C62.7541 41.6295 61.8242 41.7678 60.8533 41.3666C59.9234 40.9791 59.2943 40.2596 59.2259 39.2357C59.1576 37.9627 59.1712 36.662 59.1986 35.3891C59.2123 34.5589 59.6362 33.8947 60.3063 33.4381C60.6345 33.2167 60.6618 33.0091 60.6071 32.6632C59.7866 27.4329 57.7491 22.756 54.4261 18.6742C49.968 13.2086 44.293 9.73558 37.4145 8.44875C29.6472 6.99589 22.3858 8.44875 15.8218 12.9319C9.17585 17.4565 5.12808 23.8076 3.52812 31.75C3.4871 31.9714 3.45975 32.2066 3.41872 32.428C3.323 32.8984 3.35035 33.2582 3.82897 33.5903C4.55374 34.0746 4.81356 34.8771 4.81356 35.735C4.82724 36.7451 4.82724 37.7552 4.81356 38.7652C4.79989 39.7615 4.44434 40.5779 3.5965 41.1175C3.18625 41.3804 3.36402 41.7125 3.40505 42.0169C3.88367 44.895 4.71784 47.6623 6.05798 50.2637C10.0647 58.0676 16.2321 63.2288 24.6148 65.6087C25.6951 65.9131 26.8028 66.1068 27.9104 66.342C28.5805 64.9999 29.6745 64.5986 31.042 64.6678C31.8898 64.7093 32.7514 64.6678 33.5992 64.6816C35.1171 64.6955 36.2932 65.9131 36.2795 67.4213C36.2658 68.9157 35.1034 70.0918 33.6129 70.1057C32.5462 70.1195 31.4933 70.1195 30.4266 70.1057C29.3053 70.0918 28.4711 69.5522 28.0062 68.5283C27.8557 68.1962 27.6643 68.0716 27.3224 68.0301C22.0986 67.1999 17.3808 65.1659 13.2373 61.8589C6.87847 56.7254 2.9401 50.1668 1.62731 42.0446C1.57261 41.6987 1.46321 41.4496 1.08032 41.2974C0.683744 41.1452 0.355547 40.8269 0 40.5779C0 38.364 0 36.1224 0 33.8947ZM31.9172 68.2654C32.4368 68.2654 32.9565 68.2792 33.4761 68.2654C34.1189 68.2377 34.5017 67.8641 34.4881 67.3245C34.4744 66.7987 34.1052 66.4389 33.4898 66.4251C32.4915 66.3974 31.5069 66.3974 30.5087 66.4251C29.866 66.4389 29.4694 66.8402 29.4831 67.366C29.4967 67.8918 29.907 68.2515 30.5497 68.2654C31.0146 68.2792 31.4659 68.2654 31.9172 68.2654ZM1.23074 37.1602C1.23074 37.7275 1.21707 38.2948 1.24441 38.8621C1.27176 39.4156 1.58629 39.72 2.11961 39.72C2.6666 39.72 2.9948 39.4017 3.00848 38.8621C3.03583 37.769 3.03583 36.6759 3.00848 35.5828C2.9948 35.0431 2.57088 34.628 2.09226 34.6834C1.58629 34.7387 1.24441 35.0293 1.24441 35.5966C1.21707 36.1086 1.23074 36.6344 1.23074 37.1602ZM62.7404 37.2155C62.7404 36.7036 62.7404 36.2054 62.7404 35.6935C62.7404 35.652 62.7404 35.6104 62.7404 35.5689C62.713 35.0155 62.3848 34.7249 61.8789 34.6695C61.4002 34.6142 60.9763 35.0431 60.9627 35.5828C60.949 36.662 60.949 37.7275 60.9627 38.8068C60.9763 39.3741 61.3455 39.72 61.8652 39.72C62.3848 39.72 62.7267 39.3741 62.7404 38.7929C62.7541 38.2671 62.7404 37.7413 62.7404 37.2155Z" fill="#4E3AB0"/>
<path id="Vector_2" d="M31.9856 13.9556C44.6349 13.9556 54.9731 24.43 54.9594 37.2291C54.9457 50.0282 44.6349 60.4335 31.9993 60.4335C19.3363 60.4335 8.98442 49.9728 9.01177 37.1738C9.03912 24.4024 19.3773 13.9556 31.9856 13.9556ZM31.9856 58.6624C43.6503 58.6624 53.2227 48.9627 53.1817 37.1876C53.1406 25.3433 43.6776 15.7959 31.9993 15.7959C20.2936 15.7959 10.8579 25.3294 10.8305 37.1738C10.7895 48.9904 20.3072 58.6485 31.9856 58.6624Z" fill="#4E3AB0"/>
<path id="Vector_3" d="M25.8449 37.589C23.6843 33.7147 25.0928 29.9372 27.4996 28.0001C30.1252 25.883 33.8858 25.8969 36.5114 28.0277C38.9318 29.9926 40.2856 33.7839 38.1387 37.589C38.2344 37.672 38.3438 37.755 38.4532 37.838C39.6156 38.6683 40.4087 39.7614 40.86 41.1312C41.2976 42.4872 41.7488 43.8432 42.1728 45.1992C42.6651 46.7628 41.7762 48.0081 40.1489 48.022C34.7199 48.0358 29.2773 48.022 23.8484 48.0358C22.2074 48.0358 21.2775 46.5552 21.8109 45.1577C22.2895 43.9263 22.6177 42.6394 23.0279 41.3803C23.5886 39.6783 24.204 38.862 25.8449 37.589ZM26.5697 33.7285C26.5834 36.7864 28.9902 39.2079 31.9986 39.2079C34.9934 39.2079 37.4413 36.7173 37.4276 33.7008C37.4139 30.6706 34.9524 28.1938 31.9713 28.1938C29.0038 28.2076 26.5697 30.6982 26.5697 33.7285ZM40.4907 46.1401C40.4907 45.9879 40.5181 45.8772 40.4907 45.7804C39.9985 44.2583 39.5882 42.7086 38.9728 41.2557C38.6583 40.5086 37.9472 39.9136 37.4002 39.2771C37.1814 39.028 36.9353 39.028 36.6481 39.2771C34.0089 41.6017 29.9474 41.5878 27.3082 39.2632C27.1851 39.1525 26.8295 39.1387 26.6791 39.2356C25.8996 39.7199 25.2979 40.3979 24.9834 41.2834C24.4501 42.7916 23.9852 44.3137 23.4929 45.8219C23.4655 45.9049 23.4929 46.0156 23.4929 46.1401C29.1816 46.1401 34.8293 46.1401 40.4907 46.1401Z" fill="#4E3AB0"/>
</g>
</g>
</g>
</svg>
